<svg id="Capa_1" data-name="Capa 1" xmlns="http://www.w3.org/2000/svg" viewBox="0 0 378.57 313.54"><defs><style>.cls-1,.cls-4{fill:#1a1a1a;}.cls-2{fill:#fff;}.cls-3,.cls-5,.cls-6{fill:none;}.cls-3,.cls-4,.cls-5{stroke:#fff;}.cls-3,.cls-6{stroke-linecap:round;}.cls-3,.cls-4,.cls-5,.cls-6{stroke-miterlimit:10;}.cls-6{stroke:#1a1a1a;stroke-width:0.7px;}</style></defs><title>osobearlist</title><path class="cls-1" d="M298.15,197.52c9.66-4.38,22.44-12,33.45-8.88,9.41,2.67,12.14,12.86,10.23,21.51-4.4,19.9-28.58,22.23-45.21,24.41-1.32.17-1.33,2.28,0,2.1,18.92-2.48,45.72-5.94,47.83-29.75.72-8.19-2.71-16.72-10.79-19.79-11.92-4.54-26,3.81-36.57,8.59-1.23.56-.16,2.37,1.06,1.81Z"/><path class="cls-1" d="M86.57,218.06a41.17,41.17,0,0,1-8.41,9.77c-1,.88.46,2.36,1.49,1.49a43.07,43.07,0,0,0,8.73-10.2c.71-1.15-1.11-2.21-1.81-1.06Z"/><polygon class="cls-2" points="87.25 151.13 151.72 126.11 295.05 126.11 230.53 152.11 87.25 151.13"/><path class="cls-1" d="M292.47,126.61l-62,25-140.56-1,61.94-24H292.47m5.15-1h-146l-67,26,146,1,67-27Z"/><path class="cls-1" d="M125.54,185.68c-1.93-14.47.51-32.83,9.67-56,12.06-30.47,3.77-106,54.59-106,50.15,0,47,70.46,57.45,105.21a88.93,88.93,0,0,1,.8,49.14"/><path class="cls-1" d="M162.54,35.11a5.88,5.88,0,0,1-2.42-4.61c0-3.53,3.54-6.39,7.91-6.39a8.17,8.17,0,0,1,7.24,3.81"/><circle class="cls-2" cx="173.93" cy="59.24" r="1.9"/><circle class="cls-2" cx="201.86" cy="60.51" r="1.9"/><path class="cls-3" d="M171.07,54.48s4.45-2.54,7.62-2.54"/><path class="cls-3" d="M195.83,51.94s5.71-1.27,9.52,2.54"/><path class="cls-1" d="M207.57,30.79c.35-2.89,3.27-4.68,6.78-4.68,3.74,0,6.77,2.56,6.77,5.72A5.79,5.79,0,0,1,217,37.11"/><rect class="cls-1" x="85.12" y="152.11" width="147" height="142"/><polygon class="cls-2" points="57.44 205.12 84.93 152.11 229.75 153.1 197.34 207.11 57.44 205.12"/><path class="cls-1" d="M85.23,152.61l143.64,1-31.81,53-138.8-2,27-52m-.61-1-28,54,141,2,33-55-146-1Z"/><polygon class="cls-2" points="232.62 152.45 298.12 126.35 298.12 268.27 232.13 293.88 232.62 152.45"/><path class="cls-1" d="M297.62,127.08V267.93l-65,25.22.49-140.36,64.5-25.71m1-1.47-66.5,26.5-.5,142.5,67-26v-143Z"/><polygon class="cls-2" points="232.47 151.81 297.5 126.19 332.83 161.52 273.72 198.96 232.47 151.81"/><path class="cls-1" d="M297.38,126.78,332,161.43l-58.22,36.88L233.31,152l64.07-25.24m.24-1.17-66,26,42,48,60-38-36-36Z"/><path class="cls-4" d="M168.91,114.41c3.72,5.5,5.4,13.89,7.85,23,4.11,15.35,2.17,28.12-6.25,29.44-11.69,1.84-20.38-10.17-24.49-25.51a51.56,51.56,0,0,1-1.21-5.79"/><path class="cls-5" d="M163.07,162.48a17.16,17.16,0,0,0,3.51,4.5"/><path class="cls-5" d="M169.44,161s1.57,4.08,3.71,5"/><path class="cls-4" d="M209.82,115.51a171.42,171.42,0,0,1-10.62,20.55c-8.44,13.37-8.26,28.1.12,30.62s22-6.27,30.44-19.64c4.47-7.08,6.58-14,6.35-19.36"/><path class="cls-5" d="M200.79,161s-2.66,3.3-4.25,3.67"/><path class="cls-5" d="M205.57,163.58s-.37,2.21-4.17,3.49"/><circle class="cls-6" cx="81.12" cy="88.11" r="3.5"/><circle class="cls-6" cx="363.12" cy="272.11" r="2.5"/><circle class="cls-6" cx="283.12" cy="53.11" r="2.5"/><circle class="cls-6" cx="19.12" cy="267.11" r="2.5"/><path class="cls-1" d="M232.88,229.44c22.11-9.95,43.47-21.44,65.5-31.53,1.75-.8.23-3.39-1.51-2.59-22,10.09-43.4,21.58-65.5,31.52-1.76.8-.24,3.38,1.51,2.6Z"/><path class="cls-2" d="M84.5,235c45.89,28.1,102.31,14.49,148.16-5.91,1.23-.55.16-2.36-1.06-1.82-45.17,20.1-100.82,33.6-146,5.92-1.15-.71-2.21,1.11-1.06,1.81Z"/><path class="cls-1" d="M78.16,227.83c-12.45,10.08-29.42,12.8-43.92,5.5a42,42,0,0,1-15.65-13.57c-4.56-6.63-9.51-18.16-2.05-24.57,11.78-10.13,29.2,3.71,37.48,11.92C63.94,216.94,72.6,227.37,84.5,235c1.15.73,2.2-1.09,1.06-1.81-12.87-8.21-21.74-19.94-32.8-30.16-8-7.41-18.84-14.77-30.34-12.69-12.29,2.22-13.53,14.49-9.14,24.3a43.61,43.61,0,0,0,25.41,22.88c14.2,4.88,29.48,1.13,41-8.16,1-.85-.45-2.33-1.49-1.49Z"/><path class="cls-2" d="M186.85,96.61c-9.41,0-16.24-3.43-16.24-8.16,0-9.12,6.57-22.9,16.48-22.9l.87,0c9.31.74,15.08,14.35,15.7,21.76A6.16,6.16,0,0,1,202,92.21C199.44,95,193.91,96.61,186.85,96.61Z"/><path class="cls-1" d="M187.09,65.05v1l.83,0c9,.71,14.64,14,15.24,21.3a5.61,5.61,0,0,1-1.51,4.49c-2.48,2.69-7.88,4.24-14.8,4.24-9,0-15.74-3.29-15.74-7.66,0-8.92,6.37-22.4,16-22.4v-1m0,0c-10.44,0-17,14.27-17,23.4,0,5.2,7.33,8.66,16.74,8.66s17.88-2.89,17.31-9.81c-.68-8.13-6.79-21.48-16.16-22.22l-.91,0Z"/><path class="cls-1" d="M195.21,78.82c0,2.55-5.22,6.46-8.08,6.46s-8.07-3.91-8.07-6.46,3.61-2.77,8.07-2.77S195.21,76.27,195.21,78.82Z"/></svg>